<svg xmlns="http://www.w3.org/2000/svg" width="112" height="28" viewBox="0 0 112 28" fill="none">
  <rect x="0.5" y="0.5" width="27" height="27" rx="9" fill="#1f86ff"/>
  <path d="M9 19V9h10v3H12v7H9z" fill="white" opacity=".95"/>
  <path d="M16 19v-7h3v7h-3z" fill="white" opacity=".95"/>
  <path d="M38 20V8h6.6c1.6 0 2.9.4 3.8 1.2.9.8 1.3 1.9 1.3 3.3 0 1.4-.4 2.5-1.3 3.3-.9.8-2.2 1.2-3.8 1.2H41.6V20H38zm3.6-4h2.7c.8 0 1.4-.2 1.8-.6.4-.4.6-1 .6-1.7 0-.7-.2-1.3-.6-1.7-.4-.4-1-.6-1.8-.6h-2.7v4.6z" fill="#0b1220"/>
  <path d="M52.4 20V8H56v12h-3.6zm5.7 0V8h3.6v4.7h4.8V8h3.6v12h-3.6v-4.6h-4.8V20h-3.6z" fill="#0b1220"/>
  <path d="M78.7 20.3c-1.9 0-3.4-.6-4.6-1.7-1.1-1.1-1.7-2.6-1.7-4.6 0-2 .6-3.5 1.7-4.6 1.1-1.1 2.7-1.7 4.6-1.7 1.8 0 3.2.5 4.2 1.4 1 .9 1.6 2.2 1.6 3.8h-3.6c0-.7-.2-1.2-.6-1.6-.4-.4-.9-.6-1.6-.6-.8 0-1.4.3-1.9.9-.5.6-.7 1.4-.7 2.4 0 1 .2 1.8.7 2.4.5.6 1.1.9 1.9.9.7 0 1.3-.2 1.7-.6.4-.4.7-1 .7-1.8h-3.1v-2.6h6.7V20h-2.4l-.3-1.4c-.9 1.1-2.1 1.7-3.7 1.7z" fill="#0b1220"/>
</svg>
